<svg id="Layer_1" data-name="Layer 1" xmlns="http://www.w3.org/2000/svg" viewBox="0 0 374.22 374.22"><defs><style>.cls-1,.cls-9{fill:#2d2d2d;}.cls-2{fill:#50c0b6;}.cls-3{fill:#3f7998;}.cls-4{fill:#cce5f3;}.cls-5{fill:#c1cf7e;}.cls-6{fill:#1261a4;}.cls-7{fill:#51b0cd;}.cls-8{fill:#0099b0;}.cls-9{font-size:41.62px;font-family:Ubuntu-Medium, Ubuntu;font-weight:500;letter-spacing:-0.02em;}.cls-10{letter-spacing:-0.04em;}.cls-11{letter-spacing:-0.04em;}.cls-12{letter-spacing:-0.03em;}.cls-13{font-size:33.08px;font-family:Ubuntu;font-weight:400;letter-spacing:-0.02em;}.cls-14{letter-spacing:-0.03em;}.cls-15{letter-spacing:-0.02em;}</style></defs><path class="cls-1" d="M220.91,161.58a12.59,12.59,0,0,1-5.56-8.77,23.68,23.68,0,0,1,0-3.95,12.55,12.55,0,0,1,5.56-8.76l5.07-2.93h0l-7.81-13.53h0l-5.07,2.93a12.6,12.6,0,0,1-10.37.44,23.75,23.75,0,0,1-3.42-2,12.57,12.57,0,0,1-4.81-9.2V110H178.88v5.85a12.57,12.57,0,0,1-4.81,9.2,23.75,23.75,0,0,1-3.42,2,12.6,12.6,0,0,1-10.37-.44l-5.07-2.93h0l-7.81,13.53h0l5.07,2.93a12.55,12.55,0,0,1,5.56,8.76,23.68,23.68,0,0,1,0,3.95,12.59,12.59,0,0,1-5.56,8.77l-5.07,2.92h0L155.21,178h0l5.07-2.93a12.56,12.56,0,0,1,10.37-.43,23.69,23.69,0,0,1,3.42,2,12.58,12.58,0,0,1,4.81,9.2v5.86H194.5v-5.86a12.58,12.58,0,0,1,4.81-9.2,23.69,23.69,0,0,1,3.42-2,12.56,12.56,0,0,1,10.37.43l5.07,2.93h0L226,164.5h0Zm-34.22,4.71a15.45,15.45,0,1,1,15.45-15.45A15.45,15.45,0,0,1,186.69,166.29Z"/><polygon class="cls-2" points="225.73 138.17 223.48 143.08 237.16 143.47 225.73 138.17 225.73 138.17"/><polygon class="cls-3" points="220.11 142.9 223.48 143.08 223.48 143.08 223.48 143.08 223.48 143.08 225.73 138.17 222.96 140.5 220.11 142.9"/><polygon class="cls-4" points="226.67 157.94 226.67 157.94 226.67 157.94 233.92 152.43 222.27 144.39 226.67 157.94"/><polygon class="cls-5" points="223.78 160.07 231.89 161.64 231.89 161.64 231.89 161.64 233.92 152.43 226.67 157.94 223.78 160.07"/><path class="cls-5" d="M217.18,143.9l.67,4.43,2.78,2-.52-7.48-1.55-.83A13.28,13.28,0,0,0,217.18,143.9Z"/><polygon class="cls-3" points="225.73 138.16 225.73 138.17 237.16 143.47 232.62 135.93 232.62 135.93 231.86 127.16 229.27 131.8 225.73 138.16 225.73 138.16"/><polygon class="cls-2" points="225.98 137.17 225.98 137.17 224.99 137.75 225.73 138.16 225.73 138.16 229.27 131.8 231.86 127.16 223.79 133.37 225.98 137.17"/><polygon class="cls-3" points="225.73 138.16 224.99 137.75 224.42 138.07 225.73 138.16"/><polygon class="cls-4" points="218.17 123.64 218.18 123.64 221.37 129.18 223.97 121.81 223.97 121.81 214.87 121.62 215.94 124.93 218.17 123.64"/><polygon class="cls-5" points="211.28 121.59 211.32 121.59 214.87 121.62 214.87 121.62 214.87 121.62 223.97 121.81 223.97 121.81 216.91 115.55 214.66 117.97 211.28 121.59"/><polygon class="cls-2" points="191.92 109.98 195.27 100.58 186.69 109.8 186.88 109.98 191.92 109.98"/><polygon class="cls-3" points="186.69 109.8 186.76 109.98 186.88 109.98 186.69 109.8"/><polygon class="cls-4" points="194.5 115.02 205.79 115.02 202.79 106.43 194.5 112.76 194.5 115.02"/><polygon class="cls-5" points="206.92 118.42 210.47 112.03 210.92 111.21 210.92 111.21 210.93 111.21 202.79 106.43 205.79 115.02 206.92 118.42"/><polygon class="cls-6" points="206.92 118.42 209.77 119.09 209.77 119.09 209.77 119.09 209.77 119.09 209.77 119.09 209.77 119.09 209.77 119.09 209.77 119.09 211.28 121.59 214.66 117.97 216.91 115.55 216.91 115.55 216.91 115.55 213.45 114.03 213.45 114.03 213.45 114.03 213.45 114.03 213.45 114.03 213.45 114.03 210.92 111.21 210.47 112.03 206.92 118.42"/><polygon class="cls-2" points="207.33 122.45 211.28 121.59 209.77 119.09 209.77 119.09 209.77 119.09 209.77 119.09 209.77 119.09 209.77 119.09 209.77 119.09 209.77 119.09 206.92 118.42 207.33 122.45 207.33 122.45"/><polygon class="cls-2" points="186.5 109.98 186.69 109.8 186.69 109.8 178.11 100.58 181.47 109.98 186.5 109.98"/><polygon class="cls-3" points="186.69 109.8 186.5 109.98 186.62 109.98 186.69 109.8"/><polygon class="cls-4" points="178.88 115.02 178.88 112.76 176.22 110.72 170.59 106.43 167.59 115.02 178.88 115.02"/><polygon class="cls-5" points="166.46 118.42 167.59 115.02 167.59 115.02 170.59 106.43 162.46 111.21 162.46 111.21 162.46 111.21 166.46 118.42"/><polygon class="cls-2" points="147.65 138.17 148.4 137.75 147.4 137.17 147.4 137.17 149.59 133.37 147.65 131.88 141.53 127.16 147.65 138.17 147.65 138.17"/><polygon class="cls-4" points="155.21 123.64 155.21 123.64 157.44 124.93 158.52 121.62 149.42 121.81 152.01 129.18 155.21 123.64"/><polygon class="cls-5" points="149.42 121.81 149.42 121.81 158.52 121.62 158.52 121.62 162.1 121.59 159.78 119.09 156.47 115.55 149.42 121.81 149.42 121.81 149.42 121.81"/><polygon class="cls-6" points="163.61 119.09 163.61 119.09 163.61 119.09 163.61 119.09 163.61 119.09 163.61 119.09 163.61 119.09 166.46 118.42 162.46 111.21 159.94 114.03 159.94 114.03 159.94 114.03 159.94 114.03 156.47 115.55 159.78 119.09 162.1 121.59 163.61 119.09"/><polygon class="cls-2" points="166.06 122.45 166.06 122.45 166.46 118.42 166.46 118.42 163.61 119.09 163.61 119.09 163.61 119.09 162.1 121.59 162.1 121.59 166.06 122.45"/><polygon class="cls-3" points="147.65 138.17 141.53 127.16 141.53 127.16 141.53 127.16 140.77 135.93 140.77 135.93 136.23 143.47 147.65 138.17 147.65 138.17 147.65 138.17"/><polygon class="cls-2" points="147.65 138.17 147.65 138.17 136.23 143.47 149.91 143.08 147.65 138.17"/><polygon class="cls-3" points="153.28 142.9 153.28 142.9 149.35 139.6 147.65 138.17 149.91 143.08 149.91 143.08 149.91 143.08 153.28 142.9"/><polygon class="cls-4" points="149.85 148.28 151.12 144.39 148.72 146.04 139.47 152.44 146.71 157.94 149.85 148.28"/><polygon class="cls-5" points="147.51 158.52 146.71 157.94 146.71 157.94 139.47 152.44 141.5 161.65 142.84 161.38 149.6 160.07 147.51 158.52"/><path class="cls-5" d="M156.21,143.9a14.2,14.2,0,0,0-1.39-1.83l-1.54.83h0l-.53,7.48,2.78-2Z"/><polygon class="cls-2" points="162.56 184.06 161.5 178.75 150.2 186.48 150.2 186.48 150.2 186.48 162.56 184.06"/><polygon class="cls-3" points="162.56 184.06 164.33 176.92 164.33 176.92 161.5 178.75 161.5 178.75 161.5 178.75 162.56 184.06 162.56 184.06"/><polygon class="cls-4" points="156.82 177.1 158.59 177.06 161.71 176.99 159.63 175.48 156.82 177.1"/><polygon class="cls-4" points="154.7 177.15 150.04 169.08 147.56 177.32 147.56 177.32 147.56 177.32 147.56 177.32 154.7 177.15"/><polygon class="cls-5" points="147.56 177.32 147.56 177.32 150.04 169.08 148.53 166.47 147.53 166.94 143.78 168.68 143.78 168.68 143.78 168.68 147.56 177.32 147.56 177.32 147.56 177.32"/><polygon class="cls-6" points="148.53 166.47 147.4 164.5 147.4 164.5 149.58 163.24 149.35 162.98 149.35 162.98 149.35 162.98 149.35 162.98 149.35 162.98 149.35 162.98 149.6 160.07 149.6 160.07 149.6 160.07 142.84 161.38 141.5 161.65 143.4 164.91 143.4 164.91 143.4 164.91 143.4 164.91 143.4 164.91 143.4 164.91 143.4 164.91 143.78 168.68 147.53 166.94 148.53 166.47"/><polygon class="cls-3" points="162.57 184.06 162.56 184.06 162.56 184.06 162.56 184.06 162.56 184.06 150.2 186.48 158.31 189.91 158.31 189.91 158.31 189.91 164.08 196.56 163.77 193.97 162.57 184.06"/><polygon class="cls-2" points="162.57 184.06 163.77 193.97 164.08 196.56 167.94 183.44 162.57 184.06"/><polygon class="cls-3" points="168.81 180.17 168.81 180.17 162.57 184.06 167.94 183.44 167.94 183.44 167.94 183.44 168.55 181.12 168.81 180.17"/><polygon class="cls-6" points="168.12 176.41 168.12 176.42 168.12 176.41 164.33 176.92 164.33 176.92 164.33 176.92 162.56 184.06 162.57 184.05 162.57 184.06 168.81 180.17 168.12 176.41"/><polygon class="cls-4" points="178.88 191.7 178.88 191.69 178.88 189.46 169.56 182.69 171.42 188.92 173.61 196.25 180.16 191.7 178.88 191.7"/><polygon class="cls-5" points="183.67 191.7 180.16 191.7 173.61 196.25 182.99 197.16 182.99 197.16 182.99 197.16 183.67 191.7"/><polygon class="cls-5" points="168.12 176.41 168.81 180.17 168.81 180.17 168.81 180.17 175.76 182.98 174.66 179.7 168.12 176.41"/><polygon class="cls-2" points="210.82 184.06 205.45 183.43 205.45 183.44 209.3 196.56 209.3 196.56 209.3 196.56 210.82 184.06"/><polygon class="cls-3" points="208.48 182.6 204.58 180.17 204.58 180.17 205.45 183.43 205.45 183.43 210.82 184.06 210.82 184.06 208.48 182.6"/><polygon class="cls-4" points="194.5 189.46 194.5 191.69 194.5 191.7 193.22 191.7 199.78 196.25 203.83 182.69 194.5 189.46"/><polygon class="cls-5" points="199.78 196.25 199.78 196.25 199.78 196.25 199.78 196.25 193.22 191.7 189.72 191.7 190.39 197.16 199.78 196.25 199.78 196.25 199.78 196.25"/><polygon class="cls-6" points="182.99 197.16 186.69 196.37 186.69 196.37 186.69 196.37 190.39 197.16 189.72 191.7 183.67 191.7 182.99 197.16"/><polygon class="cls-5" points="197.63 182.98 201.8 181.3 204.58 180.17 204.58 180.17 204.58 180.17 204.58 180.17 205.27 176.41 198.72 179.7 197.63 182.98"/><polygon class="cls-3" points="210.82 184.06 210.82 184.06 210.82 184.06 209.3 196.56 215.07 189.91 215.07 189.91 223.18 186.48 210.82 184.06 210.82 184.06"/><polygon class="cls-2" points="210.82 184.06 223.18 186.48 211.89 178.75 210.82 184.06 210.82 184.06"/><polygon class="cls-3" points="209.05 176.92 210.82 184.06 211.89 178.75 211.89 178.75 211.89 178.75 209.05 176.92"/><polygon class="cls-6" points="209.05 176.92 209.05 176.92 205.27 176.41 205.27 176.41 204.58 180.17 208.48 182.6 210.82 184.06 210.82 184.06 209.05 176.92 209.05 176.92"/><polygon class="cls-4" points="216.56 177.1 213.75 175.48 211.68 176.98 216.56 177.1"/><polygon class="cls-4" points="218.68 177.15 224.76 177.3 225.83 177.32 223.34 169.08 218.68 177.15"/><polygon class="cls-5" points="223.34 169.08 225.83 177.32 229.6 168.68 224.85 166.46 223.34 169.08"/><polygon class="cls-6" points="223.78 160.07 223.78 160.07 224.03 162.98 224.03 162.98 224.03 162.98 224.03 162.98 224.03 162.98 224.03 162.98 223.81 163.25 225.98 164.5 225.98 164.5 224.85 166.46 229.6 168.68 229.98 164.91 229.98 164.91 229.98 164.91 229.98 164.91 229.98 164.91 229.98 164.91 229.98 164.91 229.98 164.91 229.98 164.91 231.89 161.64 223.78 160.07 223.78 160.07"/><polygon class="cls-7" points="233.92 152.43 237.16 143.47 223.48 143.08 233.92 152.43"/><polygon class="cls-8" points="223.48 143.08 220.11 142.9 220.11 142.9 220.11 142.9 220.63 150.38 223.78 160.07 226.67 157.94 222.27 144.39 222.27 144.39 233.92 152.43 223.48 143.08 223.48 143.08"/><polygon class="cls-7" points="223.79 133.37 231.86 127.16 223.97 121.81 222.11 130.45 223.79 133.37"/><polygon class="cls-7" points="191.92 109.98 194.5 109.98 194.5 109.98 194.5 111.24 202.79 106.43 202.79 106.43 202.79 106.43 195.27 100.58 195.27 100.58 195.27 100.58 191.92 109.98"/><polygon class="cls-7" points="170.59 106.43 178.88 111.24 178.88 109.98 178.88 109.98 181.47 109.98 178.11 100.58 178.11 100.58 178.11 100.58 170.59 106.43 170.59 106.43 170.59 106.43"/><polygon class="cls-7" points="149.59 133.37 151.28 130.45 149.42 121.81 141.53 127.16 147.65 131.88 149.59 133.37"/><polygon class="cls-7" points="149.91 143.08 136.23 143.47 139.47 152.44 149.66 143.3 149.91 143.08"/><polygon class="cls-8" points="151.12 144.39 151.12 144.39 149.85 148.28 146.71 157.94 147.51 158.52 149.6 160.07 152.75 150.38 153.28 142.9 149.91 143.08 149.91 143.08 149.66 143.3 139.47 152.44 148.72 146.04 151.12 144.39 151.12 144.39"/><polygon class="cls-7" points="150.2 186.48 161.5 178.75 147.56 177.32 147.56 177.32 150.2 186.48"/><polygon class="cls-7" points="167.94 183.44 167.94 183.44 164.08 196.56 164.08 196.56 164.08 196.56 164.08 196.56 173.61 196.25 170.65 189.57 167.94 183.44"/><path class="cls-8" d="M178.88,189.46v-3.62c0-.2,0-.4,0-.6l-3.1-2.26-7-2.81-.25,1-.61,2.31,2.71,6.14,3,6.68-2.19-7.33-1.86-6.23Z"/><polygon class="cls-7" points="199.78 196.25 199.78 196.25 199.78 196.25 209.3 196.56 205.45 183.44 200.72 194.11 199.78 196.25"/><path class="cls-8" d="M201.8,181.3,197.63,183l-3.1,2.26q0,.3,0,.6v3.62l9.33-6.77h0l-4.05,13.56.94-2.14,4.73-10.68-.87-3.26Z"/><polygon class="cls-7" points="223.18 186.48 223.18 186.48 225.83 177.32 211.89 178.75 223.18 186.48 223.18 186.48"/><path class="cls-8" d="M162.14,174.31a9.46,9.46,0,0,0-1.86.79l-.65.38,2.08,1.5-4.89.12-1.61.93h0l-.51-.88-7.14.17,13.94,1.43,2.83-1.83h0Z"/><path class="cls-7" d="M156.41,157.44l-.34-4.27-.54-4.84-2.78,2-3.15,9.69,3.1,1.36A11.93,11.93,0,0,0,156.41,157.44Z"/><path class="cls-7" d="M197.63,183l1.09-3.28-2.53.52a12.4,12.4,0,0,0-1.66,5l3.1-2.26Z"/><path class="cls-7" d="M175.76,183h0l3.1,2.26a12.42,12.42,0,0,0-1.67-5l-2.53-.52Z"/><path class="cls-5" d="M207.89,173.76l-2.62,2.65,3.78.51,2.19-2.61A13.49,13.49,0,0,0,207.89,173.76Z"/><path class="cls-8" d="M225.09,177.31l-6.41-.16-.5.88h0l-1.61-.93-4.88-.12h0l2.07-1.5-.65-.38a9,9,0,0,0-1.86-.79l-2.19,2.61h0l2.84,1.83,13.94-1.43Z"/><path class="cls-7" d="M217.31,153.17l-.34,4.27a12,12,0,0,0,3.72,4l3.09-1.36-3.15-9.69h0l-2.78-2Z"/><path class="cls-2" d="M220.91,161.58l2.9,1.66L224,163h0l-.25-2.91-3.09,1.36Z"/><path class="cls-6" d="M224.42,138.07l-3.51,2a10.13,10.13,0,0,0-2.35,2l1.55.83,2.85-2.4,2.77-2.33h0Z"/><polygon class="cls-8" points="222.11 130.45 223.97 121.81 221.37 129.18 222.11 130.45"/><path class="cls-8" d="M213.1,126.57l2.84-1.64-1.07-3.31-3.55,0h0l1.65,5.07Z"/><path class="cls-8" d="M194.77,117.94l2,.49h10.19L205.79,115H194.5v.81A9.32,9.32,0,0,0,194.77,117.94Z"/><polygon class="cls-8" points="194.5 112.76 202.79 106.43 194.5 111.24 194.5 112.76"/><polygon class="cls-6" points="186.62 109.98 186.76 109.98 186.69 109.8 186.69 109.8 186.69 109.8 186.69 109.8 186.62 109.98"/><path class="cls-7" d="M211.28,121.59l-3.95.86h0l-.41-4H196.73l-2-.49a15.15,15.15,0,0,0,.48,1.54h0a15.1,15.1,0,0,0,.95,2l2.16,1,6.89,2.85h0l2.24,2.62a12,12,0,0,0,5.44-1.26Z"/><polygon class="cls-8" points="178.88 111.24 170.59 106.43 176.22 110.72 178.88 112.76 178.88 111.24"/><path class="cls-8" d="M176.65,118.43l2-.49a9.32,9.32,0,0,0,.27-2.11V115H167.6l-1.14,3.41Z"/><path class="cls-7" d="M176.65,118.43H166.46l-.4,4h0l-3.95-.86-1.65,5.07a12,12,0,0,0,5.44,1.26l2.23-2.62h0l6.89-2.85,2.16-1a13.93,13.93,0,0,0,.95-2,11.37,11.37,0,0,0,.48-1.54Z"/><path class="cls-8" d="M158.52,121.62l-1.08,3.31,2.84,1.64.18.09,1.65-5.07Z"/><polygon class="cls-8" points="149.42 121.81 151.28 130.45 152.01 129.18 149.42 121.81"/><path class="cls-5" d="M162.14,174.31l2.19,2.61,3.79-.51-2.62-2.65A13.65,13.65,0,0,0,162.14,174.31Z"/><path class="cls-2" d="M152.7,161.43l-3.1-1.36-.25,2.91h0l.23.26,2.89-1.66Z"/><path class="cls-6" d="M149.35,139.6l3.93,3.3,1.54-.83a9.93,9.93,0,0,0-2.35-2l-3.51-2-1.31.1h0Z"/><polygon class="cls-3" points="195.27 100.58 186.69 102.56 186.69 102.56 178.11 100.58 186.69 109.8 186.69 109.8 195.27 100.58"/><text class="cls-9" transform="translate(65.04 239.41)">K<tspan class="cls-10" x="26.26" y="0">a</tspan><tspan x="46.82" y="0">lei</tspan><tspan class="cls-11" x="91.93" y="0">dos</tspan><tspan class="cls-12" x="155.65" y="0">c</tspan><tspan class="cls-11" x="174" y="0">op</tspan><tspan x="220.37" y="0">e</tspan><tspan class="cls-13"><tspan x="62.31" y="28">Sys</tspan><tspan class="cls-14" x="109.12" y="28">t</tspan><tspan class="cls-15" x="121.42" y="28">ems</tspan></tspan></text></svg>