<svg id="Layer_1" data-name="Layer 1" xmlns="http://www.w3.org/2000/svg" viewBox="0 0 374.22 374.22"><defs><style>.cls-1{font-size:41.62px;font-family:Ubuntu-Medium, Ubuntu;font-weight:500;letter-spacing:-0.02em;}.cls-1,.cls-8{fill:#2d2d2d;}.cls-2{letter-spacing:-0.04em;}.cls-3{letter-spacing:-0.04em;}.cls-4{letter-spacing:-0.03em;}.cls-5{font-size:33.08px;font-family:Ubuntu;font-weight:400;letter-spacing:-0.02em;}.cls-6{letter-spacing:-0.03em;}.cls-7{letter-spacing:-0.02em;}.cls-9{fill:#50c0b6;}.cls-10{fill:#3f7998;}.cls-11{fill:#cce5f3;}.cls-12{fill:#c1cf7e;}.cls-13{fill:#1261a4;}.cls-14{fill:#51b0cd;}.cls-15{fill:#0099b0;}</style></defs><text class="cls-1" transform="translate(65.04 274.18)">K<tspan class="cls-2" x="26.26" y="0">a</tspan><tspan x="46.82" y="0">lei</tspan><tspan class="cls-3" x="91.93" y="0">dos</tspan><tspan class="cls-4" x="155.65" y="0">c</tspan><tspan class="cls-3" x="174" y="0">op</tspan><tspan x="220.37" y="0">e</tspan><tspan class="cls-5"><tspan x="62.31" y="28">Sys</tspan><tspan class="cls-6" x="109.12" y="28">t</tspan><tspan class="cls-7" x="121.42" y="28">ems</tspan></tspan></text><path class="cls-8" d="M244.42,168.68c-4.71-2.71-8.94-9.36-9.39-14.78a41.14,41.14,0,0,1,0-6.66c.45-5.42,4.68-12.07,9.39-14.78l8.55-4.94h0L239.8,104.7h0l-8.55,4.93c-4.7,2.72-12.58,3.06-17.49.74A39.3,39.3,0,0,1,208,107c-4.47-3.1-8.11-10.09-8.11-15.52V81.65H173.52v9.87c0,5.43-3.65,12.42-8.11,15.52a39.93,39.93,0,0,1-5.78,3.33c-4.91,2.32-12.79,2-17.49-.74l-8.55-4.93h0l-13.17,22.81h0l8.55,4.94c4.71,2.71,8.94,9.36,9.39,14.78a39,39,0,0,1,0,6.66c-.45,5.42-4.68,12.07-9.39,14.79l-8.55,4.93h0l13.17,22.81h0l8.55-4.93c4.7-2.72,12.58-3.06,17.49-.74a39.93,39.93,0,0,1,5.78,3.33c4.46,3.1,8.11,10.09,8.11,15.52v9.88h26.35v-9.88c0-5.43,3.64-12.42,8.11-15.52a39.3,39.3,0,0,1,5.77-3.33c4.91-2.32,12.79-2,17.49.74l8.55,4.93h0L253,173.63h0Zm-57.73,8a26.07,26.07,0,1,1,26.07-26.07A26.07,26.07,0,0,1,186.69,176.64Z"/><polygon class="cls-9" points="252.54 129.2 248.75 137.49 271.82 138.15 252.54 129.19 252.54 129.2"/><polygon class="cls-10" points="243.06 137.18 248.75 137.49 248.75 137.49 248.75 137.49 248.75 137.49 252.54 129.2 247.87 133.13 243.06 137.18"/><polygon class="cls-11" points="254.13 162.55 254.13 162.55 254.13 162.55 266.35 153.26 246.7 139.7 254.13 162.55"/><polygon class="cls-12" points="249.26 166.15 262.93 168.8 262.93 168.8 262.93 168.8 266.35 153.26 254.13 162.55 249.26 166.15"/><path class="cls-12" d="M238.11,138.86l1.14,7.48,4.7,3.46-.89-12.62-2.61-1.41A23.87,23.87,0,0,0,238.11,138.86Z"/><polygon class="cls-10" points="252.54 129.19 252.54 129.19 271.82 138.15 264.16 125.42 264.16 125.42 262.88 110.62 258.52 118.46 252.54 129.19 252.54 129.19"/><polygon class="cls-9" points="252.97 127.51 252.97 127.52 251.29 128.49 252.54 129.19 252.54 129.19 258.52 118.46 262.88 110.62 249.27 121.11 252.97 127.51"/><polygon class="cls-10" points="252.54 129.19 251.29 128.49 250.34 129.04 252.54 129.19"/><polygon class="cls-11" points="239.79 104.7 239.8 104.7 245.19 114.04 249.57 101.61 249.57 101.61 234.22 101.28 236.04 106.87 239.79 104.7"/><polygon class="cls-12" points="228.17 101.23 228.24 101.23 234.22 101.28 234.22 101.28 234.22 101.28 249.57 101.61 249.57 101.61 237.66 91.05 233.87 95.12 228.17 101.23"/><polygon class="cls-9" points="195.51 81.64 201.16 65.79 186.69 81.35 187.01 81.64 195.51 81.64"/><polygon class="cls-10" points="186.69 81.35 186.81 81.64 187.01 81.64 186.69 81.35"/><polygon class="cls-11" points="199.87 90.15 218.9 90.15 213.85 75.66 199.87 86.34 199.87 90.15"/><polygon class="cls-12" points="220.82 95.89 226.79 85.11 227.57 83.72 227.57 83.72 227.57 83.72 213.85 75.66 218.9 90.15 220.82 95.89"/><polygon class="cls-13" points="220.82 95.89 225.62 97.01 225.62 97.01 225.62 97.01 225.62 97.01 225.62 97.01 225.62 97.01 225.62 97.01 225.62 97.01 228.17 101.23 233.87 95.12 237.66 91.05 237.66 91.05 237.66 91.05 231.82 88.47 231.82 88.47 231.82 88.47 231.82 88.47 231.82 88.47 231.82 88.47 227.57 83.72 226.79 85.11 220.82 95.89"/><polygon class="cls-9" points="221.5 102.68 228.17 101.23 225.62 97.01 225.62 97.01 225.62 97.01 225.62 97.01 225.62 97.01 225.62 97.01 225.62 97.01 225.62 97.01 220.82 95.89 221.5 102.68 221.5 102.68"/><polygon class="cls-9" points="186.38 81.64 186.69 81.35 186.69 81.35 172.22 65.79 177.88 81.64 186.38 81.64"/><polygon class="cls-10" points="186.69 81.35 186.38 81.64 186.57 81.64 186.69 81.35"/><polygon class="cls-11" points="173.52 90.15 173.52 86.34 169.02 82.9 159.53 75.66 154.48 90.15 173.52 90.15"/><polygon class="cls-12" points="152.56 95.89 154.48 90.15 154.48 90.15 159.53 75.66 145.81 83.72 145.81 83.72 145.81 83.72 152.56 95.89"/><polygon class="cls-9" points="120.84 129.19 122.09 128.49 120.41 127.52 120.41 127.51 124.11 121.11 120.83 118.58 110.51 110.63 120.84 129.19 120.84 129.19"/><polygon class="cls-11" points="133.58 104.7 133.59 104.7 137.35 106.87 139.16 101.28 123.82 101.61 128.19 114.04 133.58 104.7"/><polygon class="cls-12" points="123.82 101.61 123.82 101.61 139.16 101.28 139.16 101.28 145.22 101.23 141.29 97.02 135.72 91.05 123.82 101.61 123.82 101.61 123.82 101.61"/><polygon class="cls-13" points="147.76 97.01 147.76 97.01 147.76 97.01 147.76 97.01 147.76 97.01 147.76 97.01 147.76 97.01 152.56 95.89 145.81 83.72 141.56 88.47 141.56 88.47 141.56 88.48 141.56 88.48 135.72 91.05 141.29 97.02 145.22 101.23 147.76 97.01"/><polygon class="cls-9" points="151.88 102.68 151.88 102.68 152.56 95.89 152.56 95.89 147.76 97.01 147.76 97.01 147.76 97.01 145.22 101.23 145.22 101.23 151.88 102.68"/><polygon class="cls-10" points="120.84 129.19 110.51 110.63 110.51 110.63 110.51 110.63 109.23 125.42 109.23 125.42 101.57 138.15 120.84 129.2 120.84 129.19 120.84 129.19"/><polygon class="cls-9" points="120.84 129.2 120.84 129.2 101.57 138.15 124.64 137.49 120.84 129.2"/><polygon class="cls-10" points="130.32 137.18 130.32 137.18 123.7 131.61 120.84 129.2 124.64 137.49 124.64 137.49 124.64 137.49 130.32 137.18"/><polygon class="cls-11" points="124.55 146.25 126.68 139.7 122.64 142.49 107.03 153.27 119.26 162.55 124.55 146.25"/><polygon class="cls-12" points="120.59 163.54 119.26 162.55 119.26 162.55 107.03 153.27 110.46 168.8 112.72 168.36 124.13 166.15 120.59 163.54"/><path class="cls-12" d="M135.27,138.86a23.87,23.87,0,0,0-2.34-3.09l-2.6,1.41h0l-.89,12.62,4.69-3.46Z"/><polygon class="cls-9" points="145.99 206.61 144.19 197.66 125.14 210.7 125.14 210.7 125.14 210.7 145.99 206.61"/><polygon class="cls-10" points="145.99 206.61 148.97 194.57 148.97 194.57 144.19 197.66 144.19 197.66 144.19 197.66 145.99 206.61 145.99 206.61"/><polygon class="cls-11" points="136.3 194.88 139.28 194.81 144.55 194.68 141.05 192.14 136.3 194.88"/><polygon class="cls-11" points="132.73 194.96 124.87 181.34 120.67 195.25 120.67 195.25 120.67 195.25 120.67 195.25 132.73 194.96"/><polygon class="cls-12" points="120.67 195.25 120.67 195.25 124.87 181.34 122.32 176.93 120.62 177.73 114.31 180.67 114.31 180.67 114.31 180.67 120.67 195.25 120.67 195.25 120.67 195.25"/><polygon class="cls-13" points="122.32 176.93 120.41 173.63 120.41 173.62 124.09 171.5 123.7 171.06 123.7 171.06 123.7 171.06 123.7 171.06 123.7 171.06 123.7 171.06 124.13 166.15 124.13 166.15 124.13 166.15 112.72 168.36 110.46 168.8 113.67 174.32 113.67 174.32 113.67 174.32 113.67 174.32 113.67 174.32 113.67 174.32 113.67 174.32 114.31 180.67 120.62 177.73 122.32 176.93"/><polygon class="cls-10" points="146 206.61 145.99 206.61 145.99 206.61 145.99 206.61 145.99 206.61 125.14 210.7 138.82 216.49 138.82 216.48 138.82 216.49 148.55 227.71 148.02 223.34 146 206.61"/><polygon class="cls-9" points="146 206.61 148.02 223.34 148.55 227.71 155.06 205.56 146 206.61"/><polygon class="cls-10" points="156.52 200.06 156.52 200.06 146 206.61 155.06 205.56 155.06 205.56 155.06 205.56 156.09 201.65 156.52 200.06"/><polygon class="cls-13" points="155.36 193.72 155.36 193.72 155.36 193.72 148.97 194.57 148.97 194.57 148.97 194.57 145.99 206.61 146 206.6 146 206.61 156.52 200.06 155.36 193.72"/><polygon class="cls-11" points="173.52 219.5 173.52 219.5 173.52 215.73 157.79 204.3 160.93 214.81 164.62 227.18 175.68 219.5 173.52 219.5"/><polygon class="cls-12" points="181.59 219.5 175.68 219.5 164.62 227.18 180.45 228.72 180.45 228.72 180.45 228.72 181.59 219.5"/><polygon class="cls-12" points="155.36 193.72 156.52 200.06 156.52 200.06 156.52 200.06 168.25 204.8 166.4 199.26 155.36 193.72"/><polygon class="cls-9" points="227.39 206.61 218.33 205.56 218.33 205.56 224.83 227.71 224.83 227.71 224.83 227.71 227.39 206.61"/><polygon class="cls-10" points="223.45 204.16 216.87 200.06 216.87 200.06 218.33 205.56 218.33 205.56 227.39 206.61 227.39 206.61 223.45 204.16"/><polygon class="cls-11" points="199.87 215.73 199.87 219.5 199.86 219.5 197.71 219.5 208.77 227.18 215.6 204.3 199.87 215.73"/><polygon class="cls-12" points="208.77 227.18 208.77 227.18 208.77 227.18 208.77 227.18 197.71 219.5 191.8 219.5 192.93 228.72 208.77 227.18 208.77 227.18 208.77 227.18"/><polygon class="cls-13" points="180.45 228.72 186.69 227.37 186.69 227.37 186.69 227.37 192.93 228.72 191.8 219.5 181.59 219.5 180.45 228.72"/><polygon class="cls-12" points="205.14 204.8 212.18 201.95 216.87 200.06 216.87 200.06 216.87 200.06 216.87 200.06 218.03 193.72 206.98 199.26 205.14 204.8"/><polygon class="cls-10" points="227.39 206.61 227.39 206.61 227.39 206.61 224.83 227.71 234.57 216.49 234.57 216.49 248.25 210.69 227.39 206.61 227.39 206.61"/><polygon class="cls-9" points="227.39 206.61 248.25 210.69 229.19 197.66 227.39 206.61 227.39 206.61"/><polygon class="cls-10" points="224.41 194.57 227.39 206.61 229.19 197.66 229.19 197.66 229.19 197.66 224.41 194.57"/><polygon class="cls-13" points="224.41 194.57 224.41 194.57 218.03 193.72 218.03 193.72 216.87 200.06 223.45 204.16 227.39 206.61 227.39 206.61 224.41 194.57 224.41 194.57"/><polygon class="cls-11" points="237.08 194.88 232.34 192.14 228.84 194.68 237.08 194.88"/><polygon class="cls-11" points="240.65 194.96 250.91 195.21 252.71 195.25 248.52 181.34 240.65 194.96"/><polygon class="cls-12" points="248.52 181.34 252.71 195.25 259.07 180.67 251.06 176.93 248.52 181.34"/><polygon class="cls-13" points="249.26 166.15 249.26 166.15 249.68 171.06 249.68 171.06 249.68 171.06 249.68 171.06 249.68 171.06 249.68 171.06 249.3 171.5 252.97 173.62 252.97 173.63 251.06 176.93 259.07 180.67 259.71 174.32 259.71 174.32 259.71 174.32 259.71 174.32 259.71 174.32 259.71 174.32 259.71 174.32 259.71 174.32 259.71 174.32 262.93 168.8 249.26 166.15 249.26 166.15"/><polygon class="cls-14" points="266.35 153.26 271.82 138.15 248.75 137.49 266.35 153.26"/><polygon class="cls-15" points="248.75 137.49 243.06 137.18 243.06 137.18 243.06 137.18 243.95 149.8 249.26 166.15 254.13 162.55 246.7 139.7 246.7 139.7 266.35 153.26 248.75 137.49 248.75 137.49"/><polygon class="cls-14" points="249.27 121.11 262.88 110.62 249.57 101.61 246.43 116.18 249.27 121.11"/><polygon class="cls-14" points="195.51 81.64 199.86 81.64 199.87 81.64 199.87 83.78 213.85 75.66 213.85 75.66 213.85 75.66 201.16 65.79 201.16 65.79 201.16 65.79 195.51 81.64"/><polygon class="cls-14" points="159.53 75.66 173.52 83.78 173.52 81.64 173.52 81.64 177.88 81.64 172.22 65.79 172.22 65.79 172.22 65.79 159.53 75.66 159.53 75.66 159.53 75.66"/><polygon class="cls-14" points="124.11 121.11 126.95 116.18 123.82 101.61 110.51 110.63 120.83 118.58 124.11 121.11"/><polygon class="cls-14" points="124.64 137.49 101.57 138.15 107.03 153.27 124.23 137.86 124.64 137.49"/><polygon class="cls-15" points="126.68 139.7 126.68 139.7 124.55 146.25 119.26 162.55 120.59 163.54 124.13 166.15 129.44 149.8 130.32 137.18 124.64 137.49 124.64 137.49 124.23 137.86 107.03 153.27 122.64 142.49 126.68 139.7 126.68 139.7"/><polygon class="cls-14" points="125.14 210.7 144.19 197.66 120.67 195.25 120.67 195.25 125.14 210.7"/><polygon class="cls-14" points="155.06 205.56 155.06 205.56 148.55 227.71 148.55 227.71 148.55 227.71 148.55 227.71 164.62 227.18 159.64 215.91 155.06 205.56"/><path class="cls-15" d="M173.52,215.73v-6.11c0-.33,0-.68-.05-1l-5.22-3.8-11.73-4.74-.42,1.59-1,3.91,4.58,10.35,5,11.27-3.69-12.36-3.14-10.52Z"/><polygon class="cls-14" points="208.77 227.18 208.77 227.18 208.77 227.18 224.83 227.71 218.33 205.56 210.36 223.58 208.77 227.18"/><path class="cls-15" d="M212.18,202l-7,2.85-5.23,3.8c0,.34,0,.69,0,1v6.11L215.6,204.3h0l-6.83,22.88,1.59-3.6,8-18-1.46-5.5Z"/><polygon class="cls-14" points="248.25 210.69 248.25 210.69 252.71 195.25 229.19 197.66 248.25 210.69 248.25 210.69"/><path class="cls-15" d="M145.28,190.17a15.38,15.38,0,0,0-3.14,1.34l-1.09.63,3.5,2.54-8.25.2-2.71,1.56h0l-.85-1.48-12,.29,23.51,2.41,4.78-3.09h0Z"/><path class="cls-14" d="M135.61,161.71l-.56-7.2-.92-8.17-4.69,3.46-5.31,16.35,5.22,2.29A20.17,20.17,0,0,0,135.61,161.71Z"/><path class="cls-14" d="M205.14,204.8l1.84-5.54-4.27.88a20.93,20.93,0,0,0-2.8,8.46l5.23-3.8Z"/><path class="cls-14" d="M168.25,204.8h0l5.22,3.8a20.93,20.93,0,0,0-2.8-8.46l-4.27-.87Z"/><path class="cls-12" d="M222.44,189.25,218,193.72l6.38.85,3.7-4.4A22.34,22.34,0,0,0,222.44,189.25Z"/><path class="cls-15" d="M251.47,195.22,240.65,195l-.85,1.48h0l-2.71-1.56-8.24-.2h0l3.5-2.54-1.1-.63a15.29,15.29,0,0,0-3.13-1.34l-3.7,4.4h0l4.79,3.09,23.51-2.41Z"/><path class="cls-14" d="M238.34,154.51l-.57,7.2a20.29,20.29,0,0,0,6.27,6.73l5.22-2.29L244,149.8h0l-4.7-3.46Z"/><path class="cls-9" d="M244.42,168.68l4.88,2.82.38-.44h0l-.42-4.91L244,168.44C244.16,168.52,244.29,168.61,244.42,168.68Z"/><path class="cls-13" d="M250.34,129l-5.92,3.42a16.8,16.8,0,0,0-4,3.31l2.61,1.41,4.81-4.05,4.67-3.93h0Z"/><polygon class="cls-15" points="246.43 116.18 249.57 101.61 245.19 114.04 246.43 116.18"/><path class="cls-15" d="M231.24,109.63l4.8-2.76-1.82-5.59-6,0h-.07l2.78,8.56C231,109.74,231.15,109.69,231.24,109.63Z"/><path class="cls-15" d="M200.32,95.07l3.31.82h17.19l-1.92-5.74h-19v1.37A15.48,15.48,0,0,0,200.32,95.07Z"/><polygon class="cls-15" points="199.87 86.34 213.85 75.66 199.87 83.78 199.87 86.34"/><polygon class="cls-13" points="186.57 81.64 186.81 81.64 186.69 81.35 186.69 81.35 186.69 81.35 186.69 81.35 186.57 81.64"/><path class="cls-14" d="M228.17,101.23l-6.67,1.45h0l-.68-6.79H203.63l-3.31-.82a20.14,20.14,0,0,0,.82,2.61h0a23.31,23.31,0,0,0,1.59,3.35l3.65,1.65L218,107.49h0l3.77,4.42a20.2,20.2,0,0,0,9.18-2.12Z"/><polygon class="cls-15" points="173.52 83.78 159.53 75.66 169.02 82.9 173.52 86.34 173.52 83.78"/><path class="cls-15" d="M169.75,95.89l3.31-.82a15.52,15.52,0,0,0,.46-3.55V90.15h-19l-1.92,5.74Z"/><path class="cls-14" d="M169.75,95.89H152.56l-.68,6.79h0l-6.66-1.45-2.78,8.56a20.2,20.2,0,0,0,9.18,2.12l3.76-4.41h0L167,102.68l3.64-1.65a23.37,23.37,0,0,0,1.6-3.35,21.74,21.74,0,0,0,.81-2.61Z"/><path class="cls-15" d="M139.16,101.28l-1.81,5.59,4.79,2.76.3.16,2.78-8.56Z"/><polygon class="cls-15" points="123.82 101.61 126.95 116.18 128.19 114.04 123.82 101.61"/><path class="cls-12" d="M145.28,190.17l3.69,4.4,6.39-.85-4.42-4.47A22.26,22.26,0,0,0,145.28,190.17Z"/><path class="cls-9" d="M129.35,168.44l-5.22-2.29-.43,4.91h0l.38.44,4.87-2.82C129.09,168.61,129.22,168.52,129.35,168.44Z"/><path class="cls-13" d="M123.71,131.61l6.62,5.57,2.6-1.41a16.41,16.41,0,0,0-4-3.31L123.05,129l-2.21.16h0Z"/><polygon class="cls-10" points="201.16 65.79 186.69 69.14 186.69 69.14 172.22 65.79 186.69 81.35 186.69 81.35 201.16 65.79"/></svg>