<?xml version="1.0" encoding="UTF-8" standalone="no"?>
<svg
   xmlns:dc="http://purl.org/dc/elements/1.1/"
   xmlns:cc="http://creativecommons.org/ns#"
   xmlns:rdf="http://www.w3.org/1999/02/22-rdf-syntax-ns#"
   xmlns:svg="http://www.w3.org/2000/svg"
   xmlns="http://www.w3.org/2000/svg"
   xmlns:sodipodi="http://sodipodi.sourceforge.net/DTD/sodipodi-0.dtd"
   xmlns:inkscape="http://www.inkscape.org/namespaces/inkscape"
   id="Layer_1"
   data-name="Layer 1"
   viewBox="0 0 436.26306 142.70267"
   version="1.1"
   sodipodi:docname="Kaleidoscope_Logo_Horizontal Large.svg"
   width="436.26306"
   height="142.70267"
   inkscape:version="1.0.1 (3bc2e813f5, 2020-09-07)">
  <metadata
     id="metadata225">
    <rdf:RDF>
      <cc:Work
         rdf:about="">
        <dc:format>image/svg+xml</dc:format>
        <dc:type
           rdf:resource="http://purl.org/dc/dcmitype/StillImage" />
        <dc:title></dc:title>
      </cc:Work>
    </rdf:RDF>
  </metadata>
  <sodipodi:namedview
     pagecolor="#ffffff"
     bordercolor="#666666"
     borderopacity="1"
     objecttolerance="10"
     gridtolerance="10"
     guidetolerance="10"
     inkscape:pageopacity="0"
     inkscape:pageshadow="2"
     inkscape:window-width="1920"
     inkscape:window-height="1043"
     id="namedview223"
     showgrid="false"
     fit-margin-top="5"
     fit-margin-left="5"
     fit-margin-right="5"
     fit-margin-bottom="5"
     inkscape:zoom="1.4142136"
     inkscape:cx="370.73546"
     inkscape:cy="-28.30985"
     inkscape:window-x="1920"
     inkscape:window-y="0"
     inkscape:window-maximized="1"
     inkscape:current-layer="Layer_1" />
  <defs
     id="defs4">
    <style
       id="style2">.cls-1{font-size:41.62px;font-family:Ubuntu-Medium, Ubuntu;font-weight:500;letter-spacing:-0.02em;}.cls-1,.cls-8{fill:#2d2d2d;}.cls-2{letter-spacing:-0.04em;}.cls-3{letter-spacing:-0.04em;}.cls-4{letter-spacing:-0.03em;}.cls-5{font-size:33.08px;font-family:Ubuntu;font-weight:400;letter-spacing:-0.02em;}.cls-6{letter-spacing:-0.03em;}.cls-7{letter-spacing:-0.02em;}.cls-9{fill:#50c0b6;}.cls-10{fill:#3f7998;}.cls-11{fill:#cce5f3;}.cls-12{fill:#c1cf7e;}.cls-13{fill:#1261a4;}.cls-14{fill:#51b0cd;}.cls-15{fill:#0099b0;}</style>
  </defs>
  <text
     class="cls-1"
     id="text26"
     x="178.25064"
     y="70.390366">K<tspan
   class="cls-2"
   x="204.51062"
   y="70.390366"
   id="tspan6">a</tspan><tspan
   x="225.07062"
   y="70.390366"
   id="tspan8">lei</tspan><tspan
   class="cls-3"
   x="270.18063"
   y="70.390366"
   id="tspan10">dos</tspan><tspan
   class="cls-4"
   x="333.90063"
   y="70.390366"
   id="tspan12">c</tspan><tspan
   class="cls-3"
   x="352.25061"
   y="70.390366"
   id="tspan14">op</tspan><tspan
   x="398.62067"
   y="70.390366"
   id="tspan16">e</tspan><tspan
   class="cls-5"
   id="tspan24"><tspan
     x="240.56064"
     y="98.390373"
     id="tspan18">Sys</tspan><tspan
     class="cls-6"
     x="287.37064"
     y="98.390373"
     id="tspan20">t</tspan><tspan
     class="cls-7"
     x="299.67062"
     y="98.390373"
     id="tspan22">ems</tspan></tspan></text>
  <g
     id="g1147"
     transform="matrix(0.81447654,0,0,0.81447654,-66.726384,-48.584409)">
    <path
       class="cls-8"
       d="m 244.42,168.68 c -4.71,-2.71 -8.94,-9.36 -9.39,-14.78 a 41.14,41.14 0 0 1 0,-6.66 c 0.45,-5.42 4.68,-12.07 9.39,-14.78 l 8.55,-4.94 v 0 L 239.8,104.7 v 0 l -8.55,4.93 c -4.7,2.72 -12.58,3.06 -17.49,0.74 A 39.3,39.3 0 0 1 208,107 c -4.47,-3.1 -8.11,-10.09 -8.11,-15.52 v -9.83 h -26.37 v 9.87 c 0,5.43 -3.65,12.42 -8.11,15.52 a 39.93,39.93 0 0 1 -5.78,3.33 c -4.91,2.32 -12.79,2 -17.49,-0.74 l -8.55,-4.93 v 0 l -13.17,22.81 v 0 l 8.55,4.94 c 4.71,2.71 8.94,9.36 9.39,14.78 a 39,39 0 0 1 0,6.66 c -0.45,5.42 -4.68,12.07 -9.39,14.79 l -8.55,4.93 v 0 l 13.17,22.81 v 0 l 8.55,-4.93 c 4.7,-2.72 12.58,-3.06 17.49,-0.74 a 39.93,39.93 0 0 1 5.78,3.33 c 4.46,3.1 8.11,10.09 8.11,15.52 v 9.88 h 26.35 v -9.88 c 0,-5.43 3.64,-12.42 8.11,-15.52 a 39.3,39.3 0 0 1 5.77,-3.33 c 4.91,-2.32 12.79,-2 17.49,0.74 l 8.55,4.93 v 0 L 253,173.63 v 0 z m -57.73,8 a 26.07,26.07 0 1 1 26.07,-26.07 26.07,26.07 0 0 1 -26.07,26.03 z"
       id="path28" />
    <polygon
       class="cls-9"
       points="252.54,129.19 252.54,129.2 248.75,137.49 271.82,138.15 "
       id="polygon30" />
    <polygon
       class="cls-10"
       points="243.06,137.18 248.75,137.49 252.54,129.2 247.87,133.13 "
       id="polygon32" />
    <polygon
       class="cls-11"
       points="246.7,139.7 254.13,162.55 266.35,153.26 "
       id="polygon34" />
    <polygon
       class="cls-12"
       points="262.93,168.8 266.35,153.26 254.13,162.55 249.26,166.15 "
       id="polygon36" />
    <path
       class="cls-12"
       d="m 238.11,138.86 1.14,7.48 4.7,3.46 -0.89,-12.62 -2.61,-1.41 a 23.87,23.87 0 0 0 -2.34,3.09 z"
       id="path38" />
    <polygon
       class="cls-10"
       points="264.16,125.42 262.88,110.62 258.52,118.46 252.54,129.19 271.82,138.15 "
       id="polygon40" />
    <polygon
       class="cls-9"
       points="258.52,118.46 262.88,110.62 249.27,121.11 252.97,127.51 252.97,127.52 251.29,128.49 252.54,129.19 "
       id="polygon42" />
    <polygon
       class="cls-10"
       points="251.29,128.49 250.34,129.04 252.54,129.19 "
       id="polygon44" />
    <polygon
       class="cls-11"
       points="239.79,104.7 239.8,104.7 245.19,114.04 249.57,101.61 234.22,101.28 236.04,106.87 "
       id="polygon46" />
    <polygon
       class="cls-12"
       points="237.66,91.05 233.87,95.12 228.17,101.23 228.24,101.23 234.22,101.28 249.57,101.61 "
       id="polygon48" />
    <polygon
       class="cls-9"
       points="187.01,81.64 195.51,81.64 201.16,65.79 186.69,81.35 "
       id="polygon50" />
    <polygon
       class="cls-10"
       points="186.81,81.64 187.01,81.64 186.69,81.35 "
       id="polygon52" />
    <polygon
       class="cls-11"
       points="199.87,86.34 199.87,90.15 218.9,90.15 213.85,75.66 "
       id="polygon54" />
    <polygon
       class="cls-12"
       points="227.57,83.72 213.85,75.66 218.9,90.15 220.82,95.89 226.79,85.11 "
       id="polygon56" />
    <polygon
       class="cls-13"
       points="231.82,88.47 227.57,83.72 226.79,85.11 220.82,95.89 225.62,97.01 228.17,101.23 233.87,95.12 237.66,91.05 231.82,88.47 "
       id="polygon58" />
    <polygon
       class="cls-9"
       points="221.5,102.68 228.17,101.23 225.62,97.01 220.82,95.89 "
       id="polygon60" />
    <polygon
       class="cls-9"
       points="172.22,65.79 177.88,81.64 186.38,81.64 186.69,81.35 "
       id="polygon62" />
    <polygon
       class="cls-10"
       points="186.38,81.64 186.57,81.64 186.69,81.35 "
       id="polygon64" />
    <polygon
       class="cls-11"
       points="154.48,90.15 173.52,90.15 173.52,86.34 169.02,82.9 159.53,75.66 "
       id="polygon66" />
    <polygon
       class="cls-12"
       points="152.56,95.89 154.48,90.15 159.53,75.66 145.81,83.72 "
       id="polygon68" />
    <polygon
       class="cls-9"
       points="120.83,118.58 110.51,110.63 120.84,129.19 122.09,128.49 120.41,127.52 120.41,127.51 124.11,121.11 "
       id="polygon70" />
    <polygon
       class="cls-11"
       points="133.59,104.7 137.35,106.87 139.16,101.28 123.82,101.61 128.19,114.04 133.58,104.7 "
       id="polygon72" />
    <polygon
       class="cls-12"
       points="145.22,101.23 141.29,97.02 135.72,91.05 123.82,101.61 139.16,101.28 "
       id="polygon74" />
    <polygon
       class="cls-13"
       points="141.56,88.47 141.56,88.48 135.72,91.05 141.29,97.02 145.22,101.23 147.76,97.01 152.56,95.89 145.81,83.72 "
       id="polygon76" />
    <polygon
       class="cls-9"
       points="147.76,97.01 145.22,101.23 151.88,102.68 152.56,95.89 "
       id="polygon78" />
    <polygon
       class="cls-10"
       points="110.51,110.63 109.23,125.42 101.57,138.15 120.84,129.2 120.84,129.19 "
       id="polygon80" />
    <polygon
       class="cls-9"
       points="120.84,129.2 101.57,138.15 124.64,137.49 "
       id="polygon82" />
    <polygon
       class="cls-10"
       points="130.32,137.18 123.7,131.61 120.84,129.2 124.64,137.49 "
       id="polygon84" />
    <polygon
       class="cls-11"
       points="119.26,162.55 124.55,146.25 126.68,139.7 122.64,142.49 107.03,153.27 "
       id="polygon86" />
    <polygon
       class="cls-12"
       points="120.59,163.54 119.26,162.55 107.03,153.27 110.46,168.8 112.72,168.36 124.13,166.15 "
       id="polygon88" />
    <path
       class="cls-12"
       d="m 135.27,138.86 a 23.87,23.87 0 0 0 -2.34,-3.09 l -2.6,1.41 v 0 l -0.89,12.62 4.69,-3.46 z"
       id="path90" />
    <polygon
       class="cls-9"
       points="125.14,210.7 145.99,206.61 144.19,197.66 "
       id="polygon92" />
    <polygon
       class="cls-10"
       points="148.97,194.57 144.19,197.66 145.99,206.61 "
       id="polygon94" />
    <polygon
       class="cls-11"
       points="141.05,192.14 136.3,194.88 139.28,194.81 144.55,194.68 "
       id="polygon96" />
    <polygon
       class="cls-11"
       points="124.87,181.34 120.67,195.25 132.73,194.96 "
       id="polygon98" />
    <polygon
       class="cls-12"
       points="124.87,181.34 122.32,176.93 120.62,177.73 114.31,180.67 120.67,195.25 "
       id="polygon100" />
    <polygon
       class="cls-13"
       points="113.67,174.32 113.67,174.32 113.67,174.32 114.31,180.67 120.62,177.73 122.32,176.93 120.41,173.63 120.41,173.62 124.09,171.5 123.7,171.06 124.13,166.15 112.72,168.36 110.46,168.8 113.67,174.32 "
       id="polygon102" />
    <polygon
       class="cls-10"
       points="146,206.61 145.99,206.61 125.14,210.7 138.82,216.49 138.82,216.48 138.82,216.49 148.55,227.71 148.02,223.34 "
       id="polygon104" />
    <polygon
       class="cls-9"
       points="155.06,205.56 146,206.61 148.02,223.34 148.55,227.71 "
       id="polygon106" />
    <polygon
       class="cls-10"
       points="156.52,200.06 146,206.61 155.06,205.56 156.09,201.65 "
       id="polygon108" />
    <polygon
       class="cls-13"
       points="146,206.6 146,206.61 156.52,200.06 155.36,193.72 148.97,194.57 145.99,206.61 "
       id="polygon110" />
    <polygon
       class="cls-11"
       points="173.52,219.5 173.52,215.73 157.79,204.3 160.93,214.81 164.62,227.18 175.68,219.5 "
       id="polygon112" />
    <polygon
       class="cls-12"
       points="175.68,219.5 164.62,227.18 180.45,228.72 181.59,219.5 "
       id="polygon114" />
    <polygon
       class="cls-12"
       points="156.52,200.06 168.25,204.8 166.4,199.26 155.36,193.72 "
       id="polygon116" />
    <polygon
       class="cls-9"
       points="218.33,205.56 224.83,227.71 227.39,206.61 "
       id="polygon118" />
    <polygon
       class="cls-10"
       points="223.45,204.16 216.87,200.06 218.33,205.56 227.39,206.61 "
       id="polygon120" />
    <polygon
       class="cls-11"
       points="199.87,219.5 199.86,219.5 197.71,219.5 208.77,227.18 215.6,204.3 199.87,215.73 "
       id="polygon122" />
    <polygon
       class="cls-12"
       points="208.77,227.18 197.71,219.5 191.8,219.5 192.93,228.72 "
       id="polygon124" />
    <polygon
       class="cls-13"
       points="192.93,228.72 191.8,219.5 181.59,219.5 180.45,228.72 186.69,227.37 "
       id="polygon126" />
    <polygon
       class="cls-12"
       points="212.18,201.95 216.87,200.06 218.03,193.72 206.98,199.26 205.14,204.8 "
       id="polygon128" />
    <polygon
       class="cls-10"
       points="227.39,206.61 224.83,227.71 234.57,216.49 248.25,210.69 "
       id="polygon130" />
    <polygon
       class="cls-9"
       points="248.25,210.69 229.19,197.66 227.39,206.61 "
       id="polygon132" />
    <polygon
       class="cls-10"
       points="229.19,197.66 224.41,194.57 227.39,206.61 "
       id="polygon134" />
    <polygon
       class="cls-13"
       points="218.03,193.72 216.87,200.06 223.45,204.16 227.39,206.61 224.41,194.57 "
       id="polygon136" />
    <polygon
       class="cls-11"
       points="232.34,192.14 228.84,194.68 237.08,194.88 "
       id="polygon138" />
    <polygon
       class="cls-11"
       points="248.52,181.34 240.65,194.96 250.91,195.21 252.71,195.25 "
       id="polygon140" />
    <polygon
       class="cls-12"
       points="251.06,176.93 248.52,181.34 252.71,195.25 259.07,180.67 "
       id="polygon142" />
    <polygon
       class="cls-13"
       points="259.71,174.32 259.71,174.32 259.71,174.32 262.93,168.8 249.26,166.15 249.68,171.06 249.3,171.5 252.97,173.62 252.97,173.63 251.06,176.93 259.07,180.67 259.71,174.32 "
       id="polygon144" />
    <polygon
       class="cls-14"
       points="271.82,138.15 248.75,137.49 266.35,153.26 "
       id="polygon146" />
    <polygon
       class="cls-15"
       points="243.95,149.8 249.26,166.15 254.13,162.55 246.7,139.7 266.35,153.26 248.75,137.49 243.06,137.18 "
       id="polygon148" />
    <polygon
       class="cls-14"
       points="246.43,116.18 249.27,121.11 262.88,110.62 249.57,101.61 "
       id="polygon150" />
    <polygon
       class="cls-14"
       points="199.87,83.78 213.85,75.66 201.16,65.79 195.51,81.64 199.86,81.64 199.87,81.64 "
       id="polygon152" />
    <polygon
       class="cls-14"
       points="159.53,75.66 173.52,83.78 173.52,81.64 177.88,81.64 172.22,65.79 "
       id="polygon154" />
    <polygon
       class="cls-14"
       points="120.83,118.58 124.11,121.11 126.95,116.18 123.82,101.61 110.51,110.63 "
       id="polygon156" />
    <polygon
       class="cls-14"
       points="124.23,137.86 124.64,137.49 101.57,138.15 107.03,153.27 "
       id="polygon158" />
    <polygon
       class="cls-15"
       points="130.32,137.18 124.64,137.49 124.23,137.86 107.03,153.27 122.64,142.49 126.68,139.7 124.55,146.25 119.26,162.55 120.59,163.54 124.13,166.15 129.44,149.8 "
       id="polygon160" />
    <polygon
       class="cls-14"
       points="125.14,210.7 144.19,197.66 120.67,195.25 "
       id="polygon162" />
    <polygon
       class="cls-14"
       points="159.64,215.91 155.06,205.56 148.55,227.71 164.62,227.18 "
       id="polygon164" />
    <path
       class="cls-15"
       d="m 173.52,215.73 v -6.11 c 0,-0.33 0,-0.68 -0.05,-1 l -5.22,-3.8 -11.73,-4.74 -0.42,1.59 -1,3.91 4.58,10.35 5,11.27 -3.69,-12.36 -3.14,-10.52 z"
       id="path166" />
    <polygon
       class="cls-14"
       points="224.83,227.71 218.33,205.56 210.36,223.58 208.77,227.18 "
       id="polygon168" />
    <path
       class="cls-15"
       d="m 212.18,202 -7,2.85 -5.23,3.8 c 0,0.34 0,0.69 0,1 v 6.11 L 215.6,204.3 v 0 l -6.83,22.88 1.59,-3.6 8,-18 -1.46,-5.5 z"
       id="path170" />
    <polygon
       class="cls-14"
       points="248.25,210.69 252.71,195.25 229.19,197.66 "
       id="polygon172" />
    <path
       class="cls-15"
       d="m 145.28,190.17 a 15.38,15.38 0 0 0 -3.14,1.34 l -1.09,0.63 3.5,2.54 -8.25,0.2 -2.71,1.56 v 0 l -0.85,-1.48 -12,0.29 23.51,2.41 4.78,-3.09 v 0 z"
       id="path174" />
    <path
       class="cls-14"
       d="m 135.61,161.71 -0.56,-7.2 -0.92,-8.17 -4.69,3.46 -5.31,16.35 5.22,2.29 a 20.17,20.17 0 0 0 6.26,-6.73 z"
       id="path176" />
    <path
       class="cls-14"
       d="m 205.14,204.8 1.84,-5.54 -4.27,0.88 a 20.93,20.93 0 0 0 -2.8,8.46 z"
       id="path178" />
    <path
       class="cls-14"
       d="m 168.25,204.8 v 0 l 5.22,3.8 a 20.93,20.93 0 0 0 -2.8,-8.46 l -4.27,-0.87 z"
       id="path180" />
    <path
       class="cls-12"
       d="m 222.44,189.25 -4.44,4.47 6.38,0.85 3.7,-4.4 a 22.34,22.34 0 0 0 -5.64,-0.92 z"
       id="path182" />
    <path
       class="cls-15"
       d="m 251.47,195.22 -10.82,-0.22 -0.85,1.48 v 0 l -2.71,-1.56 -8.24,-0.2 v 0 l 3.5,-2.54 -1.1,-0.63 a 15.29,15.29 0 0 0 -3.13,-1.34 l -3.7,4.4 v 0 l 4.79,3.09 23.51,-2.41 z"
       id="path184" />
    <path
       class="cls-14"
       d="m 238.34,154.51 -0.57,7.2 a 20.29,20.29 0 0 0 6.27,6.73 l 5.22,-2.29 L 244,149.8 v 0 l -4.7,-3.46 z"
       id="path186" />
    <path
       class="cls-9"
       d="m 244.42,168.68 4.88,2.82 0.38,-0.44 v 0 l -0.42,-4.91 -5.26,2.29 c 0.16,0.08 0.29,0.17 0.42,0.24 z"
       id="path188" />
    <path
       class="cls-13"
       d="m 250.34,129 -5.92,3.42 a 16.8,16.8 0 0 0 -4,3.31 l 2.61,1.41 4.81,-4.05 4.67,-3.93 v 0 z"
       id="path190" />
    <polygon
       class="cls-15"
       points="249.57,101.61 245.19,114.04 246.43,116.18 "
       id="polygon192" />
    <path
       class="cls-15"
       d="m 231.24,109.63 4.8,-2.76 -1.82,-5.59 h -6 -0.07 l 2.78,8.56 c 0.07,-0.1 0.22,-0.15 0.31,-0.21 z"
       id="path194" />
    <path
       class="cls-15"
       d="m 200.32,95.07 3.31,0.82 h 17.19 l -1.92,-5.74 h -19 v 1.37 a 15.48,15.48 0 0 0 0.42,3.55 z"
       id="path196" />
    <polygon
       class="cls-15"
       points="213.85,75.66 199.87,83.78 199.87,86.34 "
       id="polygon198" />
    <polygon
       class="cls-13"
       points="186.81,81.64 186.69,81.35 186.57,81.64 "
       id="polygon200" />
    <path
       class="cls-14"
       d="m 228.17,101.23 -6.67,1.45 v 0 l -0.68,-6.79 h -17.19 l -3.31,-0.82 a 20.14,20.14 0 0 0 0.82,2.61 v 0 a 23.31,23.31 0 0 0 1.59,3.35 l 3.65,1.65 11.62,4.81 v 0 l 3.77,4.42 a 20.2,20.2 0 0 0 9.18,-2.12 z"
       id="path202" />
    <polygon
       class="cls-15"
       points="173.52,86.34 173.52,83.78 159.53,75.66 169.02,82.9 "
       id="polygon204" />
    <path
       class="cls-15"
       d="m 169.75,95.89 3.31,-0.82 a 15.52,15.52 0 0 0 0.46,-3.55 v -1.37 h -19 l -1.92,5.74 z"
       id="path206" />
    <path
       class="cls-14"
       d="m 169.75,95.89 h -17.19 l -0.68,6.79 v 0 l -6.66,-1.45 -2.78,8.56 a 20.2,20.2 0 0 0 9.18,2.12 l 3.76,-4.41 v 0 l 11.62,-4.82 3.64,-1.65 a 23.37,23.37 0 0 0 1.6,-3.35 21.74,21.74 0 0 0 0.81,-2.61 z"
       id="path208" />
    <path
       class="cls-15"
       d="m 139.16,101.28 -1.81,5.59 4.79,2.76 0.3,0.16 2.78,-8.56 z"
       id="path210" />
    <polygon
       class="cls-15"
       points="126.95,116.18 128.19,114.04 123.82,101.61 "
       id="polygon212" />
    <path
       class="cls-12"
       d="m 145.28,190.17 3.69,4.4 6.39,-0.85 -4.42,-4.47 a 22.26,22.26 0 0 0 -5.66,0.92 z"
       id="path214" />
    <path
       class="cls-9"
       d="m 129.35,168.44 -5.22,-2.29 -0.43,4.91 v 0 l 0.38,0.44 4.87,-2.82 c 0.14,-0.07 0.27,-0.16 0.4,-0.24 z"
       id="path216" />
    <path
       class="cls-13"
       d="m 123.71,131.61 6.62,5.57 2.6,-1.41 a 16.41,16.41 0 0 0 -4,-3.31 l -5.88,-3.46 -2.21,0.16 v 0 z"
       id="path218" />
    <polygon
       class="cls-10"
       points="186.69,69.14 172.22,65.79 186.69,81.35 201.16,65.79 "
       id="polygon220" />
  </g>
</svg>
